<svg id="Layer_1" data-name="Layer 1" xmlns="http://www.w3.org/2000/svg" viewBox="0 0 198.1 75.1"><defs><style>.cls-5{fill:#231f20}</style></defs><path fill="#9fcaec" d="M51.1 43L22.2 71.7l3.4 3.4 25.5-25.4 8.6 8.5 3.3-3.3L51.1 43z"/><path fill="#84bbe5" d="M51.2 20.6L.5 71.2l-.5.5 3.3 3.4 47.9-47.9L71 47.1l3.4-3.4-23.2-23.1z"/><path fill="#244093" d="M91.6 26.5l3.3-3.3L71.7 0l-6.8 6.9 3.3 3.3 3.5-3.5 19.9 19.8z"/><path fill="#508fcc" d="M61.5 10.3l-6.9 6.8 3.3 3.4 3.6-3.5 19.8 19.8 3.3-3.4-23.1-23.1z"/><path class="cls-5" d="M97.2 75.8a1.5 1.5 0 001.7-1.4h1.4a2.9 2.9 0 01-3.1 2.5c-2.1 0-3.6-1.6-3.6-4a3.6 3.6 0 013.6-3.9 2.9 2.9 0 013.1 2.5h-1.4a1.6 1.6 0 00-1.7-1.4c-1.4 0-2.2 1.1-2.2 2.8s.8 2.9 2.2 2.9zm11.4 1.1a3.6 3.6 0 01-3.7-3.9c0-2.3 1.4-4 3.7-4s3.6 1.7 3.6 4-1.4 3.9-3.6 3.9zm0-6.8c-1.5 0-2.2 1.2-2.2 2.9s.7 2.8 2.2 2.8 2.2-1.1 2.2-2.8-.8-2.9-2.2-2.9zm13.9 4.4h.1v-5.3h1.3v7.6h-1.3l-3.9-5.9v5.9h-1.4v-7.6h1.7zm7.8 0c.1 1 1 1.3 1.9 1.3s1.6-.4 1.6-1.1-.3-.9-1.2-1.1l-1.4-.2c-1.1-.2-2-.7-2-2.1A2.5 2.5 0 01132 69c1.8 0 2.9.8 3.1 2.2h-1.3c-.1-.7-.8-1.1-1.8-1.1s-1.5.5-1.5 1.1.4.9 1.3 1l1.4.3a2 2 0 012 2.1c0 1.4-1.2 2.3-2.9 2.3s-3.2-.8-3.4-2.4zm13.2 2.4c-2.1 0-3.3-1.1-3.3-3.2v-4.5h1.5v4.5c0 1.3.6 2.1 1.8 2.1s1.8-.8 1.8-2.1v-4.5h1.4v4.5a2.9 2.9 0 01-3.2 3.2zm8.7-7.7h1.4v6.4h3.9v1.2h-5.3zm11.6 1.1h-2.7v-1.1h6.8v1.1h-2.7v6.5h-1.4zm9.2-1.1h1.4v7.6H173zm12.2 5.3v-5.3h1.3v7.6h-1.3l-3.9-5.9v5.9h-1.4v-7.6h1.7zm10.1-5.5a2.9 2.9 0 013.2 2.5h-1.4a1.7 1.7 0 00-1.8-1.4c-1.4 0-2.2 1.1-2.2 2.8s.8 2.9 2.2 2.9a1.7 1.7 0 001.9-1.6v-.3h-1.5v-1h2.9v3.9h-1.1v-1.1a2.4 2.4 0 01-2.2 1.2c-2.1 0-3.5-1.6-3.5-4a3.6 3.6 0 013.5-3.9zm-52.8-40.2a8.3 8.3 0 00-7.4 4.3c-1.1-2.9-3.4-4.3-6.8-4.3a7.5 7.5 0 00-6.7 3.7v-3.2h-4v22.6h4.1V39.5c0-4.5 2.1-7.2 5.6-7.2s4.6 1.8 4.6 5.9v13.7h4.2V39.5c0-4.5 2.1-7.2 5.5-7.2s4.6 1.8 4.6 5.9v13.7h4.2V37.4c0-5.6-2.8-8.6-7.9-8.6zm-38.2 3.4c2.8 0 4.6 1.5 5.2 4.4v.2h4v-.3c-.8-4.9-4.2-7.7-9.2-7.7s-10.7 4.7-10.7 11.8 3.7 11.2 9.4 11.8v8.2h6.4v-2.2h-4.1v-6a8.6 8.6 0 008.2-7.7v-.3h-4v.2c-.6 2.9-2.4 4.4-5.2 4.4s-6.6-3.1-6.6-8.4 2.6-8.4 6.6-8.4zm69 14.9V36.9c0-5.3-3.2-8.1-9-8.1s-8.5 2.7-8.9 7.2v.3h4v-.2c.3-2.5 2-3.9 4.8-3.9s5 1.7 5 4.8v1l-6.9.9c-5.3.6-7.9 3-7.9 6.9s3 6.6 7.4 6.6 6.2-1.3 7.5-3.4a21.9 21.9 0 00.4 2.7v.2h4.2v-.3a17.7 17.7 0 01-.6-4.5zm-4.1-5.8V43c0 4.2-3.5 6.1-6.6 6.1s-4-1.3-4-3.4 1.8-3.4 4.8-3.8z" transform="translate(-.7 -1.8)"/><path class="cls-5" d="M193.2 50.2h4.9l-8.7-11.9 8-10.8h-4.6l-5.7 8-5.7-7.9-.1-.1h-5l8.2 11-8.6 11.7h4.6l6.3-8.8 6.3 8.7.1.1z"/></svg>